# xmcd
#
# Track frame offsets:
#	150
#	17235
#	30750
#	52120
#	69635
#	98130
#	116737
#	133077
#	156497
#
# Disc length: 2602 seconds
#
# Revision: 0
# Processed by: cddbd v1.5.2PL0 Copyright (c) Steve Scherf et al.
# Submitted via: EasyCDDAExtractor 10.0.2.1
#
DISCID=7a0a2809
DTITLE=The Chi-Lites - A Lonely Man
DYEAR=1972
DGENRE=R&B
TTITLE0=Oh Girl
TTITLE1=Living In The Footsteps Of Another Man
TTITLE2=Love Is
TTITLE3=Being In Love
TTITLE4=A Lonely Man
TTITLE5=The Man And The Woman (The Boy And the Girl
TTITLE6=Aint Too Much Of Nothing
TTITLE7=Inner City Blues (Make Me Wanna Hollar)
TTITLE8=The Coldest Day Of My Life
EXTD=
EXTT0=
EXTT1=
EXTT2=
EXTT3=
EXTT4=
EXTT5=
EXTT6=
EXTT7=
EXTT8=
PLAYORDER=
